<svg viewBox="435.75 297.78 251.05 176.43" xmlns="http://www.w3.org/2000/svg"
    xmlns:xlink="http://www.w3.org/1999/xlink">
    <clipPath id="a">
        <path d="m0 595.276h841.89v-595.276h-841.89z" />
    </clipPath>
    <g transform="matrix(1.3333333 0 0 -1.3333333 0 793.70133)">
        <path fill="#BE9D4E"
            d="m0 0-25.778-15.571v-31.569l26.576-15.486 26.11 15.486v14.078l-26.908-15.358-15.113 8.319v14.078l15.678-8.959 38.074 22.184v-40.528l-38.639-21.97-37.937 22.183v43.941l38.288 21.757 29.543-16.851-11.732-7.039z"
            transform="translate(423.8534 359.3368)" />
        <g clip-path="url(#a)">
            <path fill="#BE9D4E"
                d="m0 0c-3.11 3.06-7.445 4.589-11.474 4.589-10.454 0-15.808-7.649-15.757-15.91 0-8.414 5.355-15.656 15.757-15.656 3.825 0 7.803 1.327 10.862 4.131v9.995h-12.443v2.397h15.044v-13.36c-3.722-3.723-8.159-5.763-13.463-5.763-12.136 0-18.409 8.465-18.409 18.205-.051 11.168 7.548 18.46 18.409 18.46 4.692 0 9.434-1.785 13.055-5.354z"
                transform="translate(356.6972 269.2003)" />
            <path fill="#BE9D4E"
                d="m0 0-9.587 21.724-9.587-21.724zm4.998-11.321-3.927 8.771h-21.316l-3.876-8.771h-2.958l16.013 35.696h3.009l16.012-35.696z"
                transform="translate(398.7646 251.4029)" />
            <path fill="#BE9D4E" d="m422.372 275.778h2.703v-35.696h-2.703z" />
            <path fill="#BE9D4E"
                d="m0 0 24.019-29.526v29.526h2.703v-35.696h-1.072l-24.069 29.475v-29.475h-2.754v35.696z"
                transform="translate(445.6235 275.7784)" />
            <path fill="#BE9D4E" d="m0 0h25.855v-.969l-23-32.025h23v-2.702h-27.079v1.173l22.693 31.973h-21.469z"
                transform="translate(489.2212 275.7784)" />
        </g>
    </g>
</svg>