<svg xmlns="http://www.w3.org/2000/svg" viewBox="326.58 229.75 188.7 135.82"><defs><style>.cls-1{fill:#be9d4e;}</style>
</defs><g id="Layer_1" data-name="Layer 1"><path class="cls-1" d="M356.76,347.23v12.89a17.39,17.39,0,0,1-12.89,5.39c-10.25,0-17.28-7.07-17.28-17.42s7.07-17.42,17.42-17.42a17,17,0,0,1,12.18,5.05l-1.88,2a14.43,14.43,0,0,0-10.3-4.29c-8.66,0-14.58,5.92-14.58,14.68s5.87,14.68,14.44,14.68A15,15,0,0,0,354,359v-9.1H342.57v-2.64Z"/><path class="cls-1" d="M397.53,356.75h-20l-3.66,8.19h-3.08l15.11-33.69h3.28l15.11,33.69h-3.13Zm-18.82-2.69h17.62l-8.81-19.83Z"/><path class="cls-1" d="M420.73,331.25h2.84v33.69h-2.84Z"/><path class="cls-1" d="M470.64,331.25v33.69H467.8l-21.37-29.12v29.12h-2.84V331.25h2.89l21.27,29v-29Z"/><path class="cls-1" d="M488.25,359.59l1.78-2c2.36,3.08,7.22,5.25,12,5.25,6.4,0,10.39-2.55,10.39-6.64,0-3.81-2.64-5.49-10.78-7-9.09-1.64-12.56-4.28-12.56-9.58s5.15-8.9,12.71-8.9a16.65,16.65,0,0,1,12,4.67l-1.64,2a14.51,14.51,0,0,0-10.44-4.09c-5.87,0-9.82,2.55-9.82,6.35s2.65,5.44,10.16,6.88c9.86,1.78,13.23,4.24,13.23,9.58,0,5.78-5.15,9.43-13.28,9.43C496.63,365.51,491.28,363.2,488.25,359.59Z"/><polygon class="cls-1" points="425.7 242.35 399.92 257.92 399.92 289.49 426.49 304.97 452.6 289.49 452.6 275.41 425.7 290.77 410.58 282.45 410.58 268.37 426.26 277.33 464.34 255.15 464.34 295.67 425.7 317.64 387.76 295.46 387.76 251.52 426.05 229.76 455.59 246.61 443.86 253.65 425.7 242.35"/></g>
</svg>